<?xml version="1.0" encoding="utf-8"?>
<!-- Generator: Adobe Illustrator 27.8.1, SVG Export Plug-In . SVG Version: 6.00 Build 0)  -->
<svg version="1.1" id="Calque_1" xmlns="http://www.w3.org/2000/svg" xmlns:xlink="http://www.w3.org/1999/xlink" x="0px" y="0px"
	 viewBox="0 0 78.7 69.6" style="enable-background:new 0 0 78.7 69.6;" xml:space="preserve">
<style type="text/css">
	.st0{fill:#1D1D1B;stroke:#1D1D1B;stroke-miterlimit:10;}
	.st1{fill:#22A089;stroke:#22A089;stroke-miterlimit:10;}
</style>
<path class="st0" d="M35.7,1.1C35.4,0.3,34.3,0.3,34,1L15.2,38.5L13,42.8L0.6,67.7c-0.3,0.6,0.1,1.4,0.8,1.4h6.6
	c0.4,0,0.7-0.2,0.8-0.5l10.2-20.4c0.2-0.5,0.9-0.7,1.4-0.4l31.7,21.1c0.2,0.1,0.3,0.2,0.5,0.2h7.1c0.7,0,1.1-0.7,0.9-1.3L35.7,1.1z
	 M22.2,42.1L32.7,21c0.4-0.7,1.4-0.7,1.7,0.1l14,37.5c0.3,0.9-0.6,1.6-1.4,1.1L22.5,43.3C22.1,43,22,42.5,22.2,42.1L22.2,42.1z"/>
<circle class="st1" cx="71.7" cy="64.7" r="4.4"/>
</svg>
