<svg width="143" height="124" viewBox="0 0 143 124" fill="none" xmlns="http://www.w3.org/2000/svg">
<path stroke="#000000" stroke-width="1" d="M45.7355 123.297C46.8122 122.543 46.5968 120.174 44.3358 111.776C41.6441 101.332 41.7518 99.502 45.1972 99.3944C46.8122 99.3944 47.3505 102.947 46.2738 105.962C45.3048 108.331 45.4125 109.084 46.7045 109.623C50.3652 110.915 53.8106 104.993 52.1956 100.256C50.7959 96.272 46.0585 94.5493 41.2134 96.1643C35.9377 97.887 35.2917 101.009 38.1988 112.207C41.1058 123.297 42.3978 125.342 45.7355 123.297Z" fill="black"/>
<path stroke="#000000" stroke-width="1" d="M12.898 113.391C14.513 112.099 15.805 110.592 15.805 109.946C15.805 109.3 16.5587 108.223 17.5277 107.577C19.0351 106.393 18.9274 104.67 16.451 89.9197C14.9437 80.9833 13.6517 73.3389 13.6517 73.0159C13.6517 72.6929 13.1133 72.4775 12.575 72.4775C11.283 72.4775 11.1753 87.228 12.4673 93.7957C13.3287 97.9948 13.221 98.3178 10.96 98.3178C7.83763 98.3178 3.31559 101.978 1.16224 106.07C-0.45278 109.192 -0.45278 109.515 1.59291 112.207C4.2846 115.868 9.02198 116.406 12.898 113.391ZM5.25361 109.085C5.14594 108.116 6.00728 106.285 7.29929 104.886C9.34498 102.624 9.77565 102.624 10.637 104.132C11.1753 105.101 12.4673 105.855 13.4364 105.855C14.836 105.855 14.4054 106.608 12.0367 108.546C8.48364 111.453 5.79195 111.669 5.25361 109.085Z" fill="black"/>
<path stroke="#000000" stroke-width="1" d="M62.1014 108.439C62.7474 106.931 62.855 103.809 62.532 101.44C61.886 97.6718 62.1014 97.2411 64.0394 97.2411C66.9464 97.2411 68.6691 94.0111 68.7768 88.7353C68.8844 83.029 66.5157 78.7223 61.9937 76.3536C58.2253 74.3079 57.9023 74.3079 55.103 76.1382C52.9496 77.5379 52.4113 78.6146 52.8419 80.3373C55.8566 90.6734 57.7947 99.6098 57.7947 103.378C57.7947 111.13 60.0557 113.822 62.1014 108.439ZM57.687 81.1986C57.4717 80.3373 58.1177 79.4759 59.0867 79.1529C62.855 78.3992 66.0851 90.6734 62.9627 93.7957C61.6707 95.0877 60.3787 91.8577 57.687 81.1986Z" fill="black"/>
<path stroke="#000000" stroke-width="1" d="M29.263 110.161C30.555 108.116 28.617 98.5333 26.7867 97.7796C24.418 96.9182 23.449 98.9639 24.095 104.132C24.9563 110.161 27.4327 113.068 29.263 110.161Z" fill="black"/>
<path stroke="#000000" stroke-width="1" d="M138.653 107.685C142.314 105.208 144.144 101.548 141.668 101.548C140.914 101.548 138.223 102.517 135.639 103.809C133.055 105.101 130.363 105.854 129.502 105.531C126.056 104.239 127.241 95.4107 131.009 94.2264C132.301 93.7957 132.193 94.1187 130.686 95.8414C126.918 100.148 130.148 102.301 135.1 98.7484C139.407 95.7337 137.469 90.781 131.978 90.781C127.348 90.781 124.441 93.9034 123.795 99.7174C123.257 104.132 123.58 105.316 125.626 107.469C128.856 110.915 133.808 111.023 138.653 107.685Z" fill="black"/>
<path stroke="#000000" stroke-width="1" d="M105.276 107.792C105.384 107.039 105.276 103.809 105.168 100.579C105.061 96.595 105.276 95.0876 106.137 95.626C106.783 95.949 107.322 96.918 107.214 97.564C106.891 100.471 107.429 101.548 109.367 101.548C110.552 101.548 111.844 100.579 112.167 99.3943C113.243 95.949 114.858 96.918 114.858 100.902C114.858 105.316 117.119 107.685 119.165 105.316C120.78 103.378 119.811 96.918 117.442 94.5493C116.473 93.688 114.643 92.9343 113.136 92.9343C111.736 92.9343 109.583 92.2883 108.398 91.6423C106.676 90.5656 105.707 90.5656 103.338 92.0729C100.862 93.5803 100.216 94.7646 100 98.9637C99.5696 106.07 100.431 109.084 103.015 109.084C104.199 109.084 105.276 108.438 105.276 107.792Z" fill="black"/>
<path stroke="#000000" stroke-width="1" d="M84.7122 106.07C89.6649 101.009 90.5262 89.7043 85.8965 89.7043C84.2815 89.7043 83.9585 90.5657 83.9585 94.1187C83.9585 100.902 77.3908 107.9 76.3141 102.301C75.8834 100.04 78.8981 96.1644 81.1591 96.1644C83.6355 96.1644 82.1281 93.4727 79.5441 93.1497C76.0987 92.6114 71.792 97.4564 71.792 101.871C71.792 109.192 79.2211 111.561 84.7122 106.07Z" fill="black"/>
<path stroke="#000000" stroke-width="1" d="M26.1408 92.3961C26.8945 90.458 25.8178 88.6277 23.8798 88.6277C21.6188 88.6277 20.8651 90.6734 22.2648 92.3961C23.9875 94.4417 25.3872 94.4417 26.1408 92.3961Z" fill="black"/>
<path stroke="#000000" stroke-width="1" d="M129.178 82.4905C130.04 81.0908 133.162 70.1087 133.162 68.4937C133.162 67.74 132.731 67.094 132.085 67.094C130.47 67.094 125.41 77.7531 125.841 80.3371C126.164 82.5981 128.317 83.9978 129.178 82.4905Z" fill="black"/>
<path stroke="#000000" stroke-width="1" d="M29.2633 35.7628C55.4266 27.1494 88.6959 17.4593 116.474 10.4609C127.133 7.66154 136.716 5.07752 137.685 4.53918C139.946 3.35484 140.269 0.770811 138.223 0.0171371C136.823 -0.521201 89.0189 11.7529 65.4397 18.6436C48.6435 23.5964 4.60742 38.0238 3.63841 38.9928C2.56173 40.0695 3.85374 43.4072 5.46876 43.2996C6.11477 43.2996 16.7739 39.8542 29.2633 35.7628Z" fill="black"/>
</svg>
