<?xml version="1.0" encoding="UTF-8"?>
<svg id="Calque_1" data-name="Calque 1" xmlns="http://www.w3.org/2000/svg" viewBox="0 0 164.01 184.88">
  <defs>
    <style>
      .cls-1 {
        fill: #fff;
        stroke-width: 0px;
      }
    </style>
  </defs>
  <path class="cls-1" d="m19.67,18l126.01.02-11.96,134.04-51.15,14.15-51-14.17L19.67,18m5.96,50.86h.02l.74,8.55,1.63,18.97.94,10.97h.09l2.5,28.56.73,8.29,8.01,2.23,39.1,10.87,3.21.89,3.21-.89,39.11-10.88,8-2.22.74-8.27,8.66-97.14,1.17-13.07H21.71l1.19,13.08,1.74,19.13.99,10.92m67.31,38.49l-.31,3.41-10.03,2.7-10.05-2.74-.29-3.37h20.67M6.56,6l13.79,155.37,62.21,17.28,62.37-17.25,13.08-146.56V6.02l-151.46-.02h0Zm30.03,50.86l-1.74-19.13h95.53l-8.66,97.14-39.11,10.88-39.1-10.87-2.62-29.9,19.13-.05,1.29,15.19,21.28,5.79,21.25-5.72,2.22-24.82H39.97l-1.63-18.97,69.37-.07,1.74-19.5-72.85.04h0Z"/>
  <path class="cls-1" d="m130.38,37.73l-8.66,97.14-39.11,10.88-39.1-10.87-2.62-29.9,19.13-.05,1.29,15.19,21.28,5.79,21.25-5.72,2.22-24.82H39.97l-1.63-18.97,69.37-.07,1.74-19.5-72.85.04-1.74-19.13h95.53m22.96-21H11.86l2.08,22.9,1.74,19.13,1.35,14.9.39,4.54,1.63,18.97,1.65,19.2h.1l1.78,20.35,1.27,14.5,14.02,3.9,39.1,10.87,5.63,1.56,5.63-1.56,39.11-10.88,14-3.89,1.29-14.47,8.66-97.14,2.04-22.87h0Z"/>
</svg>