<?xml version="1.0" encoding="UTF-8"?>
<svg id="Calque_1" data-name="Calque 1" xmlns="http://www.w3.org/2000/svg" viewBox="0 0 163.88 221.87">
  <defs>
    <style>
      .cls-1 {
        fill: #fff;
        stroke-width: 0px;
      }
    </style>
  </defs>
  <g id="_5151e0c8492e5103c096af88a51e8d81" data-name="5151e0c8492e5103c096af88a51e8d81">
    <path class="cls-1" d="m54.99,90.25c-2.05-4.54-2.97-9.84-1.41-14.65,1.57-4.92,5.08-8.86,8.59-12.54,9.78-9.78,21.83-16.97,31.4-26.91,5.3-5.46,9.67-12,11.19-19.51,1.24-5.51.65-11.19-.48-16.65,5.08,5.78,6.76,14.05,5.3,21.51-1.57,8.38-6.22,15.78-11.67,22.16-4.38,5.14-9.4,9.67-14.65,13.89-6.11,4.92-12.11,10.21-15.94,17.13-3.24,5.62-4,12.54-1.78,18.64,3.62,10.48,12.05,18.27,16.65,28.16-5.08-4.49-10.05-9.13-14.7-14.05-4.86-5.19-9.46-10.7-12.48-17.19Zm27.56-8.22c-.92,8.59,3.57,16.7,8.92,23.08,2.59,2.86,4.81,6.38,4.92,10.38.11,5.35-2.92,10.32-6.81,13.83.92-.11,1.57-.92,2.33-1.35,5.84-3.73,11.46-8.43,14.32-14.86,1.89-4.38,1.46-9.57-1.03-13.62-2.92-4.76-6.76-8.97-9.02-14.16-1.24-2.92-1.68-6.32-.65-9.4,1.35-4.16,4.27-7.57,7.35-10.54,8.48-8.05,18.75-13.78,28.59-20.05-12.43,3.57-24.7,8.48-35.18,16.21-6.65,4.97-12.81,11.89-13.73,20.48Zm59.07,40.64c5.89.32,11.67,4.65,12.75,10.59,1.03,5.13-1.46,10.21-4.65,14.1-5.24,6.27-12.32,10.76-19.45,14.59-.7.43-1.3.97-1.84,1.57,9.4-2.38,18.81-5.94,26.43-12.05,4.21-3.51,7.94-8.16,8.75-13.73.76-4.81-1.24-9.78-4.81-12.97-4.32-3.95-10.43-5.4-16.16-4.65-3.3.43-6.92,1.13-9.19,3.89,2.7-.54,5.35-1.62,8.16-1.35Zm-117.33,15.45c7.08,1.89,14.37,2.43,21.62,2.92,6.48.43,12.97.54,19.51.49,16.86-.27,33.83-1.41,50.37-5.08,1.57-.38,3.3-.65,4.7-1.62,2.76-1.78,5.78-3.19,8.75-4.59-13.46,2.16-26.97,4-40.59,4.87-13.78.86-27.67,1.41-41.51.49-3.95-.38-8-.6-11.67-2.11-.87-.38-2.05-1.13-1.62-2.27.81-1.46,2.43-2.16,3.84-2.92,5.95-2.81,12.43-4.38,18.75-6.21-10.86-.16-21.67,2.59-31.61,6.86-2.22,1.08-4.7,1.95-6.48,3.78-.7.76-.7,2.05.11,2.7,1.62,1.46,3.78,2.11,5.84,2.7Zm87.55,14.86c-9.46,1.68-18.97,3.24-28.54,3.73-10.48.7-20.97.11-31.34-.97-2-.27-4-.59-5.78-1.51-.92-.54-1.84-1.41-1.78-2.54.11-1.78,1.62-3.02,2.7-4.32-3.35,1.19-6.7,2.43-9.51,4.65-1.19.92-2.38,2.38-2.05,4,.49,1.89,2.33,3.03,3.95,3.89,4,2.05,8.48,2.97,12.86,3.78,11.08,1.78,22.37,1.84,33.5,1.08,11.78-.92,23.51-2.86,34.91-6.21-3.24-1.46-6.32-3.14-8.92-5.57Zm-59.39,18.7c-3.03.86-6.11,1.89-8.59,3.89-1.25.97-2.22,2.65-1.62,4.22.76,2,2.65,3.19,4.43,4.21,4.65,2.54,9.89,3.73,15.02,4.65,11.62,1.84,23.56,1.57,35.13-.49,6.86-1.3,13.73-3.14,20.1-6-4.16-1.73-8.21-3.68-12.1-5.95-6.76,1.19-13.57,2.43-20.48,2.86-9.13.7-18.37-.05-27.51-1.19-2.16-.49-4.86-.7-6.32-2.59-.76-1.57.97-2.7,1.95-3.62Zm73.93,34.75c7.57-1.56,15.19-3.35,22.1-6.86,2.16-1.24,4.81-2.6,5.51-5.19.38-2.49-2.22-3.78-4.05-4.81,1.13,1.3,1.89,3.19.76,4.7-1.89,2.54-5.13,3.51-8,4.49-8.97,2.54-18.27,3.57-27.51,4.59-24.48,2.22-49.13,2.76-73.61.7-8.21-.87-16.59-1.78-24.43-4.7-1.24-.54-3.13-1.08-3.13-2.76.48-1.46,1.89-2.27,3.13-2.97,5.62-2.86,11.89-4.43,18.16-4.81-1.84-1.08-4-1.19-6.11-1.13-5.24.16-10.38,1.51-15.35,3.19-4.27,1.56-8.65,3.3-12.05,6.43-1.35,1.19-2.59,3.46-1.19,5.08,2.16,2.32,5.51,2.92,8.48,3.62,16.65,2.87,33.51,4.48,50.37,5.08,22.37.65,44.91-.32,66.91-4.65Zm22.16,2.92c-10.16,3.24-20.7,5.03-31.18,6.48-18.1,2.27-36.37,2.97-54.58,2.43-11.08-.43-22.16-1.19-33.07-3.03,2.54,1.73,5.68,2.27,8.59,3.08,12.27,2.59,24.86,3.08,37.34,3.46,18.32.32,36.64-.38,54.69-3.24,8.54-1.51,17.13-3.35,24.8-7.35,4-2.11,8.06-5.35,8.75-10.05-4.05,4.32-9.89,6.32-15.35,8.21Z"/>
  </g>
</svg>