<?xml version="1.0" encoding="UTF-8"?>
<svg id="Calque_1" data-name="Calque 1" xmlns="http://www.w3.org/2000/svg" viewBox="0 0 600 600">
  <defs>
    <style>
      .cls-1 {
        fill: #fff;
        stroke-width: 0px;
      }
    </style>
  </defs>
  <path class="cls-1" d="m366.67,275c0-32.22,26.12-58.33,58.33-58.33h50c13.81,0,25,11.19,25,25s-11.19,25-25,25h-50c-4.6,0-8.33,3.73-8.33,8.33v50c0,4.6,3.73,8.33,8.33,8.33h16.67c32.22,0,58.33,26.12,58.33,58.33v50c0,32.22-26.12,58.33-58.33,58.33h-50c-13.81,0-25-11.19-25-25s11.19-25,25-25h50c4.6,0,8.33-3.73,8.33-8.33v-50c0-4.6-3.73-8.33-8.33-8.33h-16.67c-32.22,0-58.33-26.12-58.33-58.33v-50Z"/>
  <path class="cls-1" d="m325,241.67c0-13.81-11.19-25-25-25s-25,11.19-25,25v200c0,4.6-3.73,8.33-8.33,8.33h-41.67c-13.81,0-25,11.19-25,25s11.19,25,25,25h41.67c32.22,0,58.33-26.12,58.33-58.33v-200Z"/>
  <path class="cls-1" d="m0,108.33C0,48.5,48.5,0,108.33,0h383.33c59.83,0,108.33,48.5,108.33,108.33v383.33c0,59.83-48.5,108.33-108.33,108.33H108.33c-59.83,0-108.33-48.5-108.33-108.33V108.33Zm108.33-58.33c-32.22,0-58.33,26.12-58.33,58.33v383.33c0,32.22,26.12,58.33,58.33,58.33h383.33c32.22,0,58.33-26.12,58.33-58.33V108.33c0-32.22-26.12-58.33-58.33-58.33H108.33Z"/>
</svg>