<?xml version="1.0" encoding="UTF-8"?>
<svg id="Calque_1" data-name="Calque 1" xmlns="http://www.w3.org/2000/svg" viewBox="0 0 278.16 278.15">
  <defs>
    <style>
      .cls-1 {
        fill: #fff;
        stroke-width: 0px;
      }
    </style>
  </defs>
  <path class="cls-1" d="m206.43,260.78c-1.03.55-.95.72.04.22.32-.13.59-.31.83-.53q0-.18-.87.31h0Zm2.09-1.13q-.5.41.1.14c.31-.18.59-.36.59-.41,0-.23-.14-.18-.69.27Zm1.36-.82q-.5.41.1.14c.32-.18.59-.37.59-.42,0-.22-.14-.17-.69.28Zm1.37-.81q-.5.41.08.13c.32-.17.59-.36.59-.41,0-.22-.14-.17-.67.28h0Zm1.85-1.23c-.95.63-1.28,1.04-.41.59.58-.36,1.57-1.14,1.4-1.14-.37.14-.69.37-1,.55h0ZM129.98.06c-.63.04-2.54.22-4.21.36C86.24,4,49.25,25.28,25.81,58.06,12.85,76.03,4.43,96.9,1.26,118.81c-1.12,7.65-1.26,9.91-1.26,20.28s.14,12.59,1.26,20.24c7.57,52.25,44.74,96.11,95.12,112.37,9.07,2.89,18.57,4.89,29.39,6.12,4.21.45,22.4.45,26.61,0,18.71-2.09,34.5-6.7,50.13-14.67,2.4-1.22,2.85-1.54,2.53-1.81-7.65-10.09-15.16-20.19-22.68-30.38l-22.23-30.01-27.84-41.25c-9.28-13.8-18.6-27.57-28.07-41.24-.1,0-.22,18.33-.27,40.69-.1,39.16-.1,40.75-.59,41.65-.5,1.09-1.31,1.99-2.4,2.49-.86.41-1.63.5-5.75.5h-4.7l-1.23-.76c-.76-.5-1.4-1.18-1.81-1.99l-.59-1.23.04-54.51.1-54.51.86-1.09c.55-.67,1.23-1.22,1.99-1.63,1.14-.55,1.59-.63,6.29-.63,5.52,0,6.43.22,7.88,1.81,11.27,16.79,22.5,33.63,33.54,50.52,18.07,27.4,42.74,64.78,54.87,83.12l22.05,33.37,1.09-.72c10.6-7.07,20.24-15.48,28.55-25.08,17.52-20.06,28.89-44.74,32.74-71.08,1.12-7.65,1.26-9.92,1.26-20.28s-.14-12.59-1.26-20.24c-7.57-52.25-44.74-96.11-95.12-112.37-9.42-2.98-19.11-5.02-28.93-6.06-2.63-.27-20.61-.59-22.87-.36v-.02Zm56.91,84.12c1.31.63,2.3,1.81,2.76,3.16.23.73.28,15.85.23,49.89l-.1,48.89-8.6-13.21-8.65-13.22v-35.49c0-23.01.1-35.91.22-36.54.41-1.45,1.4-2.67,2.72-3.43,1.08-.55,1.5-.59,5.8-.59,4.02,0,4.7.04,5.61.55h0Z"/>
</svg>