<?xml version="1.0" encoding="UTF-8"?>
<svg id="Calque_1" data-name="Calque 1" xmlns="http://www.w3.org/2000/svg" viewBox="0 0 246.1 213.29">
  <defs>
    <style>
      .cls-1, .cls-2 {
        fill: #fff;
        stroke-width: 0px;
      }

      .cls-2 {
        fill-rule: evenodd;
      }
    </style>
  </defs>
  <path class="cls-1" d="m145.03,106.45c0-11.77-9.84-21.31-21.98-21.31s-21.98,9.54-21.98,21.31,9.84,21.31,21.98,21.31,21.98-9.54,21.98-21.31Z"/>
  <path class="cls-2" d="m194.42,66.89c4.64-18.28,10.47-52.19-10.09-63.69-20.47-11.45-47.1,10.49-61.17,23.65C109.14,13.82,81.76-8.02,61.21,3.51c-20.46,11.48-14.15,44.83-9.41,63.23C32.72,72,0,83.32,0,106.45s32.68,35.38,51.66,40.63c-4.76,18.5-10.75,51.37,9.73,62.83,20.62,11.53,47.92-9.79,62.12-23.1,14.15,13.24,40.53,34.7,61.01,23.21,20.54-11.53,15.19-44.98,10.44-63.49,18.39-5.26,51.15-17.31,51.15-40.09s-32.89-34.32-51.68-39.56Zm-2.33,69.84c-3.11-9.56-7.32-19.73-12.46-30.23,4.91-10.25,8.95-20.29,11.98-29.79,13.77,3.87,43.98,12.72,43.98,29.74s-28.99,26.11-43.5,30.28Zm-12.85,64.47c-15.27,8.57-37.96-11.95-48.42-21.7,6.94-7.35,13.87-15.9,20.63-25.4,11.9-1.02,23.14-2.7,33.33-4.98,3.34,13.09,9.8,43.47-5.54,52.08Zm-112.6-.12c-15.28-8.54-8.29-37.87-4.79-51.5,10.08,2.16,21.24,3.72,33.16,4.66,6.81,9.29,13.94,17.83,21.13,25.31-8.88,8.33-34.15,30.12-49.5,21.54ZM10.51,106.45c0-17.24,30.03-26.03,44.11-29.89,3.08,9.71,7.12,19.87,11.99,30.14-4.94,10.42-9.04,20.74-12.14,30.56-13.43-3.73-43.96-13.56-43.96-30.81ZM66.48,12.33c15.34-8.61,39.14,12.36,49.32,21.79-7.15,7.44-14.21,15.92-20.96,25.15-11.57,1.04-22.65,2.71-32.84,4.95-3.82-14.84-10.84-43.3,4.48-51.9Zm92.5,58.03c7.85.96,15.38,2.24,22.44,3.8-2.12,6.59-4.76,13.48-7.88,20.55-4.51-8.3-9.36-16.44-14.56-24.35Zm-35.81-28.95c4.85,5.09,9.71,10.78,14.48,16.95-9.69-.44-19.4-.45-29.09,0,4.78-6.11,9.68-11.79,14.6-16.94Zm-50.51,53.29c-3.06-7.04-5.68-13.96-7.82-20.65,7.02-1.52,14.51-2.77,22.31-3.71-5.22,7.89-10.06,16.03-14.49,24.36Zm14.72,48.57c-8.06-.87-15.66-2.05-22.68-3.54,2.17-6.8,4.85-13.87,7.98-21.07,4.5,8.42,9.41,16.63,14.7,24.6Zm36.09,28.92c-4.98-5.21-9.95-10.98-14.81-17.18,9.75.37,19.51.37,29.25-.05-4.79,6.31-9.63,12.09-14.45,17.23Zm50.18-53.89c3.29,7.27,6.06,14.3,8.26,20.99-7.14,1.58-14.84,2.85-22.96,3.79,5.24-8.06,10.17-16.32,14.69-24.78Zm-28.05,26.02c-14.91,1.03-29.91,1.02-44.82.08-8.47-12-16.02-24.62-22.53-37.72,6.48-13.08,13.97-25.67,22.4-37.65,14.92-1.09,29.94-1.1,44.86,0,8.36,11.98,15.84,24.54,22.47,37.5-6.55,13.07-14.08,25.69-22.38,37.78ZM179.08,12.03c15.34,8.58,8.51,39.05,5.16,52.3-10.21-2.28-21.3-3.98-32.91-5.04-6.76-9.34-13.77-17.83-20.8-25.17,10.31-9.64,33.35-30.59,48.55-22.09Z"/>
</svg>