<?xml version="1.0" encoding="UTF-8"?>
<svg id="Calque_1" data-name="Calque 1" xmlns="http://www.w3.org/2000/svg" viewBox="0 0 249 248.7">
  <defs>
    <style>
      .cls-1 {
        fill: #fff;
        fill-rule: evenodd;
        stroke-width: 0px;
      }
    </style>
  </defs>
  <path class="cls-1" d="m42.53,217.82c4.56,3.68,11.25,3,14.92-1.57,3.7-4.55,3-11.24-1.56-14.94-4.55-3.69-11.24-2.98-14.94,1.57-3.5,4.32-3.05,10.55.89,14.35l-2.07-1.82C15.34,192.68,0,160.27,0,124.33,0,55.78,55.78,0,124.34,0c34.86,0,66.37,14.45,88.98,37.63,5.14-6.99,9.59-14.8,13.23-23.46,15.84,47.61,25.16,87.62,21.75,119.13-4.61,64.38-58.42,115.4-123.96,115.4-30.44,0-58.33-11.02-79.96-29.23l-1.85-1.63h0Zm183.48-38.77c31.2-41.52,13.81-108.67-.66-151.58-12.89,26.87-44.65,47.42-72.07,53.92-25.7,6.13-48.45,1.1-72.23,10.26-54.24,20.85-53.38,85.53-23.5,100.07.02,0,1.79.96,1.77.93,0-.02,43.92-8.73,68.19-17.69,35.48-13.1,74.44-45.4,87.25-82.92-6.82,39.02-40.32,76.57-73.98,93.81-17.91,9.2-31.84,11.24-61.32,21.45-3.61,1.23-6.44,2.44-6.44,2.44,7.47-1.24,14.92-1.65,14.92-1.65,41.96-1.98,107.44,11.8,138.08-29.02h0Z"/>
</svg>