<?xml version="1.0" encoding="UTF-8"?>
<svg id="Calque_1" data-name="Calque 1" xmlns="http://www.w3.org/2000/svg" viewBox="0 0 304.29 354.72">
  <defs>
    <style>
      .cls-1 {
        fill: #fff;
        stroke-width: 0px;
      }
    </style>
  </defs>
  <path class="cls-1" d="m284.9,46.78C250.46-.48,185.8-13.94,135.36,15.66l-85.17,52.67c-23.09,13.92-39.15,37.02-44.14,63.51-4.05,21.91-.47,44.55,10.14,64.14-7.27,10.7-12.24,22.79-14.59,35.5-4.89,26.84,1.53,54.5,17.75,76.44,34.44,47.26,99.09,60.74,149.55,31.17l85.18-52.66c23.08-13.92,39.14-37.03,44.14-63.51,4.07-21.93.49-44.59-10.14-64.19,7.28-10.69,12.26-22.78,14.61-35.5,4.89-26.85-1.55-54.52-17.79-76.45Zm-24.37,67.7c-.48,2.62-1.15,5.21-2.02,7.73l-1.61,4.76-4.36-3.01c-10.12-7.22-21.39-12.68-33.32-16.15l-3.11-.94.32-3.01c.36-4.37-.86-8.73-3.45-12.27-4.98-6.87-13.65-10-21.87-7.89-1.84.48-3.6,1.23-5.21,2.23l-85.24,52.5c-4.19,2.52-7.1,6.71-8,11.51-.95,4.85.17,9.87,3.09,13.85,4.99,6.86,13.67,9.98,21.89,7.87,1.84-.48,3.61-1.23,5.24-2.22l32.49-20.1c5.36-3.32,11.19-5.8,17.3-7.37,27.27-7.01,56.06,3.34,72.63,26.11,9.76,13.19,13.63,29.82,10.69,45.97-3.01,15.92-12.64,29.81-26.49,38.21l-85.05,52.67c-5.36,3.32-11.19,5.8-17.3,7.37h-.09c-27.25,6.99-56.01-3.36-72.56-26.11-9.79-13.17-13.68-29.82-10.75-45.97.48-2.62,1.16-5.21,2.02-7.73l1.61-4.76,4.36,3.02c10.13,7.21,21.39,12.67,33.32,16.15l3.11.93-.32,3.01c-.36,4.37.85,8.73,3.44,12.27,4.97,7.03,13.77,10.24,22.1,8.06,1.84-.48,3.59-1.23,5.21-2.22l84.96-52.67c4.18-2.54,7.1-6.72,8.03-11.53.92-4.84-.2-9.85-3.09-13.83-4.99-6.86-13.66-9.99-21.89-7.89-1.85.48-3.61,1.23-5.24,2.23l-32.61,20.09c-5.36,3.32-11.19,5.81-17.3,7.38-27.27,7.01-56.06-3.35-72.62-26.12-9.72-13.22-13.54-29.87-10.54-46,3.03-15.9,12.65-29.77,26.49-38.17l85.06-52.67c5.36-3.31,11.19-5.8,17.3-7.37,27.27-7.02,56.07,3.33,72.63,26.11,9.79,13.17,13.68,29.82,10.75,45.97Z"/>
</svg>